# xmcd CD database file
#
# Track frame offsets:
#	150
#	36196
#	69317
#	123590
#	163034
#	214421
#	258683
#	300233
#
# Disc length: 4529 seconds
#
# Revision: 0
# Processed by: cddbd v1.5.2PL0 Copyright (c) Steve Scherf et al.
# Submitted via: CDex 1.81
#
DISCID=7011af08
DTITLE=John Coltrane - The Last Train (1958) and Informal Jazz (1956)
DYEAR=1900
DGENRE=Jazz
TTITLE0=Lover
TTITLE1=Slowtrane
TTITLE2=By The Number
TTITLE3=Come Rain Or Shine
TTITLE4=Weeja
TTITLE5=Polka Dot And Moonbeams
TTITLE6=On It
TTITLE7=Avalon
EXTD=
EXTT0=
EXTT1=
EXTT2=
EXTT3=
EXTT4=
EXTT5=
EXTT6=
EXTT7=
PLAYORDER=
